<svg width="446" height="50" viewBox="0 0 446 50" fill="none" xmlns="http://www.w3.org/2000/svg">
<path d="M47.3342 9.65834L18.735 8.77349C13.8844 8.77349 0.456588 13.5341 0.456588 19.4072L0.456587 36.8247C0.456587 42.6979 13.8801 47.4584 18.735 47.4584L47.3342 46.5736L46.7914 49.2437C46.7914 49.2437 48.6376 49.787 49.0223 46.5219L50.4668 46.4753C51.0352 46.4598 51.5993 46.4856 52.1634 46.5477L58.8388 47.298C63.1808 47.7844 68.7494 45.994 71.8307 42.2632C74.4804 39.055 74.8906 34.0667 74.8906 29.1716L74.8906 27.0552C74.8906 22.1601 74.4804 17.1718 71.8307 13.9636C68.7494 10.2327 63.1766 8.44232 58.8388 8.92873L52.1634 9.67904C51.5993 9.74113 51.0309 9.767 50.4668 9.75148L49.0223 9.70491C48.6334 6.43977 46.7914 6.98309 46.7914 6.98309L47.3342 9.65316L47.3342 9.65834Z" fill="#CDCDCF" fill-opacity="0.8"/>
<path d="M50.4625 9.26084C51.0309 9.27366 51.595 9.2523 52.1591 9.20101L58.8346 8.58133C63.1766 8.17961 68.7451 9.65829 71.8264 12.7396C74.4804 15.3935 74.8906 19.5133 74.8906 23.5562L74.8906 25.3041C74.8906 29.347 74.4804 33.4668 71.8307 36.1164C68.7494 39.1977 63.1766 40.6764 58.8388 40.2747L52.1634 39.655C51.5993 39.6037 51.0309 39.5823 50.4668 39.5952L18.735 40.4029C13.8844 40.4029 0.456597 36.4711 0.456597 31.6205L0.456597 17.2355C0.456598 12.3849 13.8801 8.45312 18.735 8.45312L50.4668 9.26084L50.4625 9.26084Z" fill="#DFAF1C"/>
<path d="M47.946 37.2772C48.4845 37.2643 50.9547 38.8969 51.4932 38.9482L57.8566 39.5379C61.9935 39.9225 67.3014 38.5122 70.2416 35.5763C72.7673 33.0505 73.1562 29.1231 73.1562 25.2682L73.1562 23.6015C73.1562 19.7467 72.7673 15.8192 70.2416 13.2935C67.3014 10.3532 61.9935 8.94719 57.8566 9.33181L51.4932 9.92158C50.9547 9.97286 48.4845 11.6054 47.946 11.5926L18.4323 11.5926C13.8082 11.5926 2.20524 12.9559 2.20524 17.5799L2.20524 31.2941C2.20524 35.9181 13.8082 37.2814 18.4323 37.2814L47.946 37.2814L47.946 37.2772Z" fill="#F9BC00"/>
<path d="M50.1719 10.3054L47.3007 10.3054L45.7121 3.85982C45.7121 3.85982 50.1719 2.76763 50.1719 10.3054Z" fill="#DFAF1C"/>
<path d="M33.4609 11.1289C33.3669 11.1289 33.2729 11.1289 33.1832 11.1289C25.7983 11.1289 18.4263 11.5905 18.4263 11.5905C18.4263 11.5905 23.8025 13.4324 25.7983 13.4324L33.0293 13.4324C33.2088 12.6717 33.3584 11.9024 33.4609 11.1289Z" fill="#45474A"/>
<path d="M33.8893 13.4281L40.6246 13.4281C41.7784 13.4281 47.9453 11.5862 47.9453 11.5862C47.9453 11.5862 41.4665 11.1802 34.5688 11.1289C34.3808 11.9067 34.1414 12.6674 33.885 13.4281L33.8893 13.4281Z" fill="#45474A"/>
<path d="M33.4609 37.7371C33.3669 37.7371 33.2729 37.7371 33.1831 37.7371C25.7983 37.7371 18.4263 37.2755 18.4263 37.2755C18.4263 37.2755 23.8025 35.4336 25.7983 35.4336L33.0293 35.4336C33.2088 36.1943 33.3584 36.9636 33.4609 37.7371Z" fill="#45474A"/>
<path d="M33.8893 35.4336L40.6246 35.4336C41.7784 35.4336 47.9453 37.2755 47.9453 37.2755C47.9453 37.2755 41.4665 37.6815 34.5688 37.7328C34.3808 36.955 34.1414 36.1943 33.885 35.4336L33.8893 35.4336Z" fill="#45474A"/>
<path d="M50.2266 38.5586L47.2905 38.5586L45.6659 45.1499C45.6659 45.1499 50.2266 46.2668 50.2266 38.5586Z" fill="#DFAF1C"/>
<path d="M42.6075 14.2768L53.2831 11.5117C53.2831 11.5117 57.3516 14.4306 57.3516 24.4352C57.3516 34.4398 53.2831 37.3587 53.2831 37.3587L42.6075 34.5937C42.6075 34.5937 43.911 29.0208 43.911 24.4352C43.911 19.8496 42.6075 14.2768 42.6075 14.2768ZM18.9743 33.7261C18.5896 32.0508 17.8033 27.7772 17.8033 24.4352C17.8033 21.0932 18.5896 16.8196 18.9743 15.1443C19.0768 14.6956 18.7477 14.2639 18.2862 14.2468L8.55084 13.9092C8.2816 13.9007 8.02946 14.0374 7.8927 14.2682C5.57639 18.1743 5.89691 24.4395 5.89691 24.4395C5.89691 24.4395 5.57639 30.7004 7.8927 34.6065C8.02946 34.8373 8.2816 34.974 8.55084 34.9655L18.2862 34.6278C18.7477 34.6108 19.0768 34.1791 18.9743 33.7304L18.9743 33.7261Z" fill="#45474A"/>
<path d="M69.2972 11.5117C69.8698 13.8024 72.4767 15.2811 73.1562 15.1871C72.793 14.5246 72.3485 13.9135 71.8058 13.3708C71.0921 12.6571 70.2416 12.0374 69.2972 11.5117Z" fill="#E9E8D8"/>
<path d="M69.2972 37.3553C69.8698 35.0647 72.4767 33.586 73.1562 33.68C72.793 34.3424 72.3485 34.9536 71.8058 35.4963C71.0921 36.21 70.2416 36.8297 69.2972 37.3553Z" fill="#E9E8D8"/>
<mask id="mask0_1509_513" style="mask-type:luminance" maskUnits="userSpaceOnUse" x="87" y="0" width="359" height="50">
<path d="M445.057 0.582031H87.5781V49.0842H445.057V0.582031Z" fill="white"/>
</mask>
<g mask="url(#mask0_1509_513)">
<path fill-rule="evenodd" clip-rule="evenodd" d="M170.273 47.5045V32.28H164.75V28.9971H179.582V32.28H174.057V47.5045H170.273ZM185.508 38.1987C185.508 40.2538 186.013 41.882 186.937 43.0069C187.85 44.1277 189.082 44.6391 190.722 44.6391C192.358 44.6391 193.574 44.1277 194.494 43.0069C195.422 41.882 195.931 40.2538 195.931 38.1987C195.931 36.167 195.422 34.6261 194.494 33.4974C193.574 32.3754 192.358 31.7751 190.722 31.7751C189.082 31.7751 187.85 32.3754 186.937 33.4974C186.013 34.6261 185.508 36.167 185.508 38.1987ZM181.617 38.1987C181.617 35.2394 182.433 32.8841 184.075 31.1449C185.712 29.4082 187.97 28.4922 190.722 28.4922C193.483 28.4922 195.619 29.4082 197.26 31.1449C198.902 32.8841 199.713 35.2394 199.713 38.1987C199.713 41.171 198.902 43.6319 197.26 45.3555C195.619 47.096 193.483 48.0238 190.722 48.0238C187.97 48.0238 185.712 47.096 184.075 45.3555C182.433 43.6319 181.617 41.171 181.617 38.1987ZM207.264 37.0713H211.774C212.695 37.0713 213.407 36.869 213.925 36.4697C214.329 36.0562 214.631 35.4508 214.631 34.6261C214.631 33.8172 214.329 33.2039 213.925 32.7785C213.509 32.3754 212.799 32.1783 211.976 32.1783H207.264V37.0713ZM203.488 47.5045V28.9971H212.489C214.429 28.9971 215.962 29.4082 216.89 30.2381C217.91 31.1449 218.423 32.4783 218.423 34.2282C218.423 35.3437 218.108 36.2689 217.707 37.0713C217.185 37.8019 216.479 38.3069 215.654 38.6162C216.479 38.9162 216.988 39.3234 217.393 39.9444C217.707 40.4559 217.91 41.3745 217.91 42.5997L218.011 44.8557C218.011 45.9673 218.325 46.685 218.724 46.8899V47.5045H214.529C214.429 47.2057 214.328 46.8899 214.228 46.4854C214.228 46.0809 214.125 45.6621 214.125 45.1545V43.2142C214.018 42.0922 213.814 41.2662 213.407 40.8669C213.005 40.4559 212.386 40.2538 211.372 40.2538H207.264V47.5045H203.488ZM238.655 41.0666C238.551 43.2142 237.744 44.8557 236.209 46.0809C234.775 47.4093 232.829 48.0238 230.474 48.0238C227.712 48.0238 225.576 47.096 224.05 45.4598C222.615 43.7283 221.789 41.2662 221.789 38.1987C221.789 35.1402 222.615 32.6898 224.142 31.0588C225.677 29.3169 227.922 28.4922 230.775 28.4922C233.14 28.4922 235.087 29.1015 236.411 30.2381C237.744 31.3615 238.551 32.9912 238.655 35.1402H234.876C234.775 34.0232 234.261 33.3147 233.645 32.6898C232.936 32.1783 232.015 31.8794 230.775 31.8794C229.159 31.8794 227.825 32.3754 227.007 33.4974C226.081 34.6261 225.677 36.167 225.677 38.1987C225.677 40.2538 226.081 41.7776 227.007 42.905C227.825 44.0337 229.052 44.5387 230.693 44.5387C231.818 44.5387 232.829 44.2385 233.536 43.6319C234.261 43.1098 234.775 42.1901 234.981 41.0666H238.655ZM242.336 28.9007H246.235V40.5525C246.235 41.9903 246.423 43.0069 247.044 43.6319C247.554 44.3429 248.472 44.6391 249.698 44.6391C251.035 44.6391 251.95 44.3429 252.459 43.6319C253.077 43.0069 253.382 41.9903 253.382 40.5525V28.9007H257.157V40.97C257.157 43.2142 256.55 44.9561 255.218 46.1775C253.99 47.4093 252.155 48.0238 249.805 48.0238C247.346 48.0238 245.507 47.4093 244.29 46.1775C242.945 44.9561 242.336 43.2142 242.336 40.97V28.9007ZM268.105 32.6898L265.45 40.5525H270.656L268.105 32.6898ZM265.864 28.9971H270.25L276.893 47.5045H272.916L271.677 43.6319H264.527L263.294 47.5045H259.307L265.864 28.9971ZM282.514 47.5045V32.28H276.992V28.9971H291.717V32.28H286.301V47.5045H282.514ZM297.74 38.1987C297.74 40.2538 298.159 41.882 299.084 43.0069C299.987 44.1277 301.222 44.6391 302.851 44.6391C304.5 44.6391 305.826 44.1277 306.742 43.0069C307.663 41.882 308.064 40.2538 308.064 38.1987C308.064 36.167 307.663 34.6261 306.742 33.4974C305.826 32.3754 304.5 31.7751 302.851 31.7751C301.222 31.7751 299.987 32.3754 299.084 33.4974C298.159 34.6261 297.74 36.167 297.74 38.1987ZM293.858 38.1987C293.858 35.2394 294.674 32.8841 296.314 31.1449C297.947 29.4082 300.092 28.4922 302.851 28.4922C305.617 28.4922 307.87 29.4082 309.501 31.1449C311.141 32.8841 311.957 35.2394 311.957 38.1987C311.957 41.171 311.141 43.6319 309.501 45.3555C307.87 47.096 305.617 48.0238 302.851 48.0238C300.092 48.0238 297.947 47.096 296.314 45.3555C294.674 43.6319 293.858 41.171 293.858 38.1987ZM328.975 44.1277H332.044C333.781 44.1277 335.103 43.6319 335.827 42.7067C336.637 41.7776 337.048 40.3529 337.048 38.1987C337.048 36.167 336.637 34.6261 335.927 33.7089C335.216 32.6898 334.09 32.28 332.455 32.28H328.975V44.1277ZM325.293 47.5045V28.9971H332.455C335.311 28.9971 337.453 29.7227 338.784 31.2493C340.23 32.7785 340.925 35.1402 340.925 38.1987C340.925 39.9444 340.632 41.3745 340.118 42.7067C339.599 44.0337 338.893 45.054 337.866 45.7821C337.153 46.385 336.332 46.7999 335.417 47.096C334.494 47.3087 333.161 47.5045 331.437 47.5045H325.293ZM344.82 28.9971H348.603V47.5045H344.82V28.9971ZM367.148 47.5045V32.28H361.619V28.9971H376.346V32.28H370.91V47.5045H367.148ZM379.297 47.5045V28.9971H392.691V32.1783H383.084V36.167H391.874V39.3234H383.084V44.0337H393.205V47.5045H379.297ZM396.79 47.5045V28.9971H400.66V44.0337H409.661V47.5045H396.79ZM412.518 47.5045V28.9971H416.303V44.0337H425.297V47.5045H412.518ZM435.016 32.6898L432.459 40.5525H437.575L435.016 32.6898ZM432.77 28.9971H437.155L443.814 47.5045H439.815L438.59 43.6319H431.443L430.217 47.5045H426.222L432.77 28.9971Z" fill="#333333"/>
<path fill-rule="evenodd" clip-rule="evenodd" d="M164.75 13.7332V2.18316H167.309V13.7332C167.309 15.4764 167.719 16.703 168.436 17.525C169.254 18.4357 170.37 18.8534 172.014 18.8534C173.638 18.8534 174.77 18.4357 175.586 17.525C176.408 16.703 176.718 15.4764 176.718 13.7332V2.18316H179.266V13.7332C179.266 16.181 178.653 18.0234 177.33 19.3556C176.108 20.5795 174.15 21.1928 171.703 21.1928C169.46 21.1928 167.719 20.5795 166.488 19.3556C165.366 18.1369 164.75 16.181 164.75 13.7332ZM183.873 20.6891V2.18316H186.526L195.221 15.6839C195.423 15.9801 195.522 16.181 195.726 16.5125C195.83 16.703 195.931 17.0135 196.029 17.2066V2.18316H198.487V20.6891H195.726L186.938 7.09573C186.739 6.89739 186.631 6.67949 186.526 6.48117C186.425 6.26979 186.325 5.96707 186.226 5.757V20.6891H183.873ZM203.184 2.18316H205.64V20.6891H203.184V2.18316ZM215.046 20.6891L208.399 2.18316H211.051L216.372 17.7246L221.488 2.18316H224.143L217.605 20.6891H215.046ZM226.794 20.6891V2.18316H239.992V4.54484H229.357V10.0576H239.174V12.2001H229.357V18.4357H240.191V20.6891H226.794ZM246.424 4.43264V10.6617H250.725C252.255 10.6617 253.384 10.3629 253.992 9.95453C254.617 9.43913 255.015 8.62363 255.015 7.40496C255.015 6.26979 254.707 5.55606 254.098 5.0498C253.486 4.63879 252.358 4.43264 250.725 4.43264H246.424ZM243.981 2.18316H251.134C252.255 2.18316 253.184 2.29146 253.675 2.38671C254.297 2.48327 254.707 2.69073 255.218 2.89688C255.938 3.31704 256.55 3.91984 256.961 4.63879C257.375 5.45298 257.573 6.26979 257.573 7.40496C257.573 8.32093 257.375 9.23298 256.961 9.95453C256.55 10.5652 255.841 11.1836 255.015 11.5947C255.732 11.7969 256.245 12.1009 256.55 12.6033C256.86 13.0247 257.059 13.8441 257.157 14.965L257.375 18.0234C257.375 18.749 257.473 19.1494 257.573 19.5619C257.77 19.8775 257.885 20.0785 258.184 20.1856V20.6891H255.332C255.015 20.286 254.909 19.4652 254.811 18.2348V18.1369L254.617 15.7844C254.617 14.5487 254.297 13.7332 253.896 13.334C253.384 13.0247 252.255 12.8212 250.513 12.8212H246.424V20.6891H243.981V2.18316ZM260.945 14.6531H263.294C263.403 15.9801 263.818 17.0135 264.627 17.8238C265.548 18.6367 266.673 19.0542 268.107 19.0542C269.542 19.0542 270.656 18.749 271.477 18.1369C272.383 17.525 272.801 16.703 272.801 15.6839C272.801 14.2447 271.157 13.1265 268.107 12.4076C267.888 12.4076 267.791 12.4076 267.694 12.3097C265.141 11.6938 263.5 11.0871 262.689 10.3629C261.866 9.6466 261.45 8.53231 261.45 7.19489C261.45 5.55605 262.066 4.2343 263.294 3.21265C264.528 2.29146 266.161 1.76562 268.107 1.76562C270.141 1.76562 271.772 2.29146 272.916 3.31704C274.134 4.32825 274.748 5.8627 274.748 7.6059L272.293 7.7116C272.19 6.37156 271.772 5.45298 271.066 4.84234C270.25 4.1247 269.228 3.82721 267.994 3.82721C266.673 3.82721 265.757 4.1247 265.034 4.63879C264.213 5.14896 263.922 5.8627 263.922 6.78388C263.922 8.21785 265.452 9.23298 268.51 9.95453C268.921 10.0576 269.228 10.1581 269.542 10.2651H269.744C271.772 10.7713 273.117 11.2841 273.717 11.7969C274.227 12.3097 274.642 12.8212 274.851 13.334C275.149 13.9446 275.262 14.6531 275.262 15.3721C275.262 17.1113 274.642 18.5336 273.317 19.6596C272.084 20.6891 270.354 21.1928 268.208 21.1928C265.962 21.1928 264.213 20.6891 262.889 19.4652C261.672 18.3392 261.049 16.703 260.945 14.6531ZM279.135 2.18316H281.699V20.6891H279.135V2.18316ZM293.247 4.32825H288.956V18.4357H293.247C295.087 18.4357 296.511 17.8238 297.435 16.703C298.363 15.4764 298.87 13.6301 298.87 11.2841C298.87 9.02944 298.363 7.40496 297.435 6.16932C296.414 4.95325 295.087 4.32825 293.247 4.32825ZM286.4 20.6891V2.18316H293.449C296.001 2.18316 297.947 3.00258 299.387 4.54484C300.697 6.07145 301.426 8.32093 301.426 11.1836C301.426 14.2447 300.697 16.5125 299.28 18.2348C297.839 19.8775 295.902 20.6891 293.352 20.6891H286.4ZM308.371 13.0247H314.107L311.238 4.84234L308.371 13.0247ZM303.063 20.6891L309.916 2.18316H312.675L319.528 20.6891H316.861L314.919 15.1672H307.552L305.617 20.6891H303.063ZM329.026 4.32825H324.738V18.4357H329.026C330.867 18.4357 332.295 17.8238 333.219 16.703C334.138 15.4764 334.648 13.6301 334.648 11.2841C334.648 9.02944 334.138 7.40496 333.219 6.16932C332.195 4.95325 330.867 4.32825 329.026 4.32825ZM322.174 20.6891V2.18316H329.236C331.781 2.18316 333.727 3.00258 335.164 4.54484C336.493 6.07145 337.199 8.32093 337.199 11.1836C337.199 14.2447 336.493 16.5125 335.056 18.2348C333.628 19.8775 331.688 20.6891 329.126 20.6891H322.174Z" fill="#333333"/>
<path fill-rule="evenodd" clip-rule="evenodd" d="M133.561 46.8655H121.599L140.78 4.73101H152.746L133.561 46.8655ZM152.746 46.8655H136.564L152.746 12.3758V46.8655ZM106.468 46.8655L125.553 4.73101H137.685L118.405 46.8655H106.468ZM91.2303 46.8655L110.417 4.73101H122.378L103.197 46.8655H91.2303ZM91.2303 4.73101H107.411L91.2303 39.2232V4.73101ZM88.8125 49.0862H155.189V2.59375H88.8125V49.0862Z" fill="#333333"/>
</g>
</svg>
